<?xml version="1.0" encoding="UTF-8" standalone="no"?>
<!-- Uploaded to: SVG Repo, www.svgrepo.com, Generator: SVG Repo Mixer Tools -->

<svg
   width="800px"
   height="800px"
   viewBox="0 0 24 24"
   fill="none"
   version="1.1"
   id="svg5"
   sodipodi:docname="list-left-svgrepo-com.svg"
   inkscape:version="1.3.2 (091e20e, 2023-11-25, custom)"
   xmlns:inkscape="http://www.inkscape.org/namespaces/inkscape"
   xmlns:sodipodi="http://sodipodi.sourceforge.net/DTD/sodipodi-0.dtd"
   xmlns="http://www.w3.org/2000/svg"
   xmlns:svg="http://www.w3.org/2000/svg">
  <defs
     id="defs5" />
  <sodipodi:namedview
     id="namedview5"
     pagecolor="#505050"
     bordercolor="#ffffff"
     borderopacity="1"
     inkscape:showpageshadow="0"
     inkscape:pageopacity="0"
     inkscape:pagecheckerboard="1"
     inkscape:deskcolor="#505050"
     inkscape:zoom="0.75572037"
     inkscape:cx="211.0569"
     inkscape:cy="303.68375"
     inkscape:window-width="1920"
     inkscape:window-height="1111"
     inkscape:window-x="-9"
     inkscape:window-y="-9"
     inkscape:window-maximized="1"
     inkscape:current-layer="g5" />
  <g
     id="g5"
     transform="matrix(1.2239331,0,0,1.2239331,-2.6871966,-2.6871966)">
    <path
       d="M 21,6 H 3"
       stroke="#1c274c"
       stroke-width="1.5"
       stroke-linecap="round"
       id="path1" />
    <path
       d="M 21,10 H 3"
       stroke="#1c274c"
       stroke-width="1.5"
       stroke-linecap="round"
       id="path2" />
    <path
       d="M 10,14 H 3"
       stroke="#1c274c"
       stroke-width="1.5"
       stroke-linecap="round"
       id="path3" />
    <path
       d="M 10,18 H 3"
       stroke="#1c274c"
       stroke-width="1.5"
       stroke-linecap="round"
       id="path4" />
    <path
       d="m 18.999988,12.999988 -3,3.5 3,3.5"
       stroke="#1c274c"
       stroke-width="1.5"
       stroke-linecap="round"
       stroke-linejoin="round"
       id="path5" />
  </g>
  <path
     style="fill:#ff9955;stroke:#000000;stroke-width:2.64648"
     d="M 28.449676,184.69173 C 12.88917,182.02757 1.096653,166.81006 3.1249831,152.01178 4.5985797,141.26072 10.147102,133.35332 19.848611,128.17833 c 4.48546,-2.39264 16.379802,-2.48117 377.609699,-2.81046 245.47076,-0.22377 374.65764,0.11218 377.89047,0.98269 12.24274,3.29663 21.26242,15.47745 21.2131,28.64768 -0.0485,12.96229 -6.24514,22.64547 -17.83469,27.8696 -5.05664,2.27934 -21.80659,2.39355 -375.13876,2.55799 -203.41518,0.0947 -372.227624,-0.23568 -375.138754,-0.7341 z"
     id="path6"
     transform="scale(0.03)" />
  <path
     style="fill:#ff9955;stroke:#000000;stroke-width:2.64648"
     d="M 23.666255,346.84837 C 16.244669,344.19619 10.928886,339.80436 6.9521188,333.03939 3.9640534,327.95632 3.3161279,325.29221 3.352689,318.2394 c 0.064618,-12.46507 5.846628,-21.52683 17.395133,-27.26224 4.928336,-2.44758 14.465619,-2.51067 379.532508,-2.51067 h 374.47713 l 5.29297,2.8561 c 11.0503,5.96279 16.54051,15.12447 16.54051,27.60164 0,8.53571 -2.28008,13.78805 -9.0546,20.85796 -9.22789,9.63027 22.96914,8.89815 -388.48861,8.83367 -299.413015,-0.0469 -371.51686,-0.38643 -375.381475,-1.76749 z"
     id="path7"
     transform="scale(0.03)" />
  <path
     style="fill:#ff9955;stroke:#000000;stroke-width:2.64648"
     d="m 22.689787,509.91687 c -2.440158,-0.70236 -7.220305,-4.07254 -10.62255,-7.4893 C 0.1952277,490.50492 -0.4530079,474.95485 10.393726,462.28288 19.951742,451.11649 6.6995595,451.94855 175.50911,451.91578 l 149.70592,-0.0291 7.09811,3.69639 c 5.45821,2.84241 8.11247,5.36453 11.48863,10.91674 4.00584,6.58776 4.35071,7.98773 3.93623,15.97934 -0.62118,11.97716 -5.59482,20.10999 -15.44529,25.25594 l -7.07768,3.69742 -149.0443,-0.11934 C 84.733324,511.24 25.411633,510.7003 22.689787,509.91687 Z"
     id="path8"
     transform="scale(0.03)" />
  <path
     style="fill:#ff9955;stroke:#000000;stroke-width:2.64648"
     d="M 28.449676,674.27538 C 7.9655248,670.76223 -2.9494314,649.20504 6.4626948,630.8508 c 3.2848425,-6.40565 7.3267022,-10.10091 14.7091572,-13.44779 5.878319,-2.66498 7.846371,-2.69993 153.660368,-2.72862 164.13801,-0.0323 154.56877,-0.55006 164.23726,8.88656 6.67711,6.51701 9.41649,14.07518 8.6986,24.0001 -1.02454,14.16393 -10.69499,24.20374 -25.67641,26.6571 -8.89098,1.45599 -285.172295,1.50984 -293.641994,0.0572 z"
     id="path9"
     transform="scale(0.03)" />
  <path
     style="fill:#ff9955;stroke:#000000;stroke-width:0.0793944"
     d="m 16.079756,17.121645 c 0.04076,-0.07642 0.923129,-1.130379 1.960828,-2.342136 1.327356,-1.550001 1.941056,-2.237656 2.069978,-2.319427 0.437357,-0.277401 1.063132,-0.06891 1.268452,0.422609 0.08368,0.200326 0.07694,0.530768 -0.01481,0.725749 -0.04109,0.08733 -0.799372,1.00203 -1.685061,2.032657 l -1.610346,1.873867 1.610188,1.877521 c 0.885603,1.032635 1.646124,1.947425 1.690047,2.032866 0.11711,0.227807 0.08957,0.626989 -0.05871,0.851057 -0.174573,0.263798 -0.386334,0.379846 -0.719569,0.394335 -0.249319,0.01084 -0.302804,-4.41e-4 -0.468345,-0.09879 -0.141524,-0.08408 -0.645861,-0.645781 -2.07789,-2.314226 -1.040054,-1.211757 -1.924672,-2.27465 -1.965819,-2.361984 -0.0994,-0.210965 -0.09888,-0.586714 0.0011,-0.774096 z"
     id="path10" />
</svg>
