<?xml version="1.0" encoding="UTF-8" standalone="no"?>
<!-- Uploaded to: SVG Repo, www.svgrepo.com, Generator: SVG Repo Mixer Tools -->

<svg
   width="800px"
   height="800px"
   viewBox="0 0 24 24"
   fill="none"
   version="1.1"
   id="svg5"
   sodipodi:docname="list-down-svgrepo-com.svg"
   inkscape:version="1.3.2 (091e20e, 2023-11-25, custom)"
   xmlns:inkscape="http://www.inkscape.org/namespaces/inkscape"
   xmlns:sodipodi="http://sodipodi.sourceforge.net/DTD/sodipodi-0.dtd"
   xmlns="http://www.w3.org/2000/svg"
   xmlns:svg="http://www.w3.org/2000/svg">
  <defs
     id="defs5" />
  <sodipodi:namedview
     id="namedview5"
     pagecolor="#505050"
     bordercolor="#ffffff"
     borderopacity="1"
     inkscape:showpageshadow="0"
     inkscape:pageopacity="0"
     inkscape:pagecheckerboard="1"
     inkscape:deskcolor="#505050"
     inkscape:zoom="0.75572037"
     inkscape:cx="211.0569"
     inkscape:cy="303.68375"
     inkscape:window-width="1920"
     inkscape:window-height="1111"
     inkscape:window-x="-9"
     inkscape:window-y="-9"
     inkscape:window-maximized="1"
     inkscape:current-layer="svg5" />
  <g
     id="g5"
     transform="matrix(1.2239331,0,0,1.2239331,-2.6871966,-2.6871966)">
    <path
       d="M 21,6 H 3"
       stroke="#1c274c"
       stroke-width="1.5"
       stroke-linecap="round"
       id="path1" />
    <path
       d="M 21,10 H 3"
       stroke="#1c274c"
       stroke-width="1.5"
       stroke-linecap="round"
       id="path2" />
    <path
       d="M 10,14 H 3"
       stroke="#1c274c"
       stroke-width="1.5"
       stroke-linecap="round"
       id="path3" />
    <path
       d="M 10,18 H 3"
       stroke="#1c274c"
       stroke-width="1.5"
       stroke-linecap="round"
       id="path4" />
    <path
       d="m 14,15 3.5,3 3.5,-3"
       stroke="#1c274c"
       stroke-width="1.5"
       stroke-linecap="round"
       stroke-linejoin="round"
       id="path5" />
  </g>
  <path
     style="fill:#ff9955;stroke:#000000;stroke-width:2.64648"
     d="M 28.449676,184.69173 C 12.88917,182.02757 1.096653,166.81006 3.1249831,152.01178 4.5985797,141.26072 10.147102,133.35332 19.848611,128.17833 c 4.48546,-2.39264 16.379802,-2.48117 377.609699,-2.81046 245.47076,-0.22377 374.65764,0.11218 377.89047,0.98269 12.24274,3.29663 21.26242,15.47745 21.2131,28.64768 -0.0485,12.96229 -6.24514,22.64547 -17.83469,27.8696 -5.05664,2.27934 -21.80659,2.39355 -375.13876,2.55799 -203.41518,0.0947 -372.227624,-0.23568 -375.138754,-0.7341 z"
     id="path6"
     transform="scale(0.03)" />
  <path
     style="fill:#ff9955;stroke:#000000;stroke-width:2.64648"
     d="M 23.666255,346.84837 C 16.244669,344.19619 10.928886,339.80436 6.9521188,333.03939 3.9640534,327.95632 3.3161279,325.29221 3.352689,318.2394 c 0.064618,-12.46507 5.846628,-21.52683 17.395133,-27.26224 4.928336,-2.44758 14.465619,-2.51067 379.532508,-2.51067 h 374.47713 l 5.29297,2.8561 c 11.0503,5.96279 16.54051,15.12447 16.54051,27.60164 0,8.53571 -2.28008,13.78805 -9.0546,20.85796 -9.22789,9.63027 22.96914,8.89815 -388.48861,8.83367 -299.413015,-0.0469 -371.51686,-0.38643 -375.381475,-1.76749 z"
     id="path7"
     transform="scale(0.03)" />
  <path
     style="fill:#ff9955;stroke:#000000;stroke-width:2.64648"
     d="m 22.689787,509.91687 c -2.440158,-0.70236 -7.220305,-4.07254 -10.62255,-7.4893 C 0.1952277,490.50492 -0.4530079,474.95485 10.393726,462.28288 19.951742,451.11649 6.6995595,451.94855 175.50911,451.91578 l 149.70592,-0.0291 7.09811,3.69639 c 5.45821,2.84241 8.11247,5.36453 11.48863,10.91674 4.00584,6.58776 4.35071,7.98773 3.93623,15.97934 -0.62118,11.97716 -5.59482,20.10999 -15.44529,25.25594 l -7.07768,3.69742 -149.0443,-0.11934 C 84.733324,511.24 25.411633,510.7003 22.689787,509.91687 Z"
     id="path8"
     transform="scale(0.03)" />
  <path
     style="fill:#ff9955;stroke:#000000;stroke-width:2.64648"
     d="M 28.449676,674.27538 C 7.9655248,670.76223 -2.9494314,649.20504 6.4626948,630.8508 c 3.2848425,-6.40565 7.3267022,-10.10091 14.7091572,-13.44779 5.878319,-2.66498 7.846371,-2.69993 153.660368,-2.72862 164.13801,-0.0323 154.56877,-0.55006 164.23726,8.88656 6.67711,6.51701 9.41649,14.07518 8.6986,24.0001 -1.02454,14.16393 -10.69499,24.20374 -25.67641,26.6571 -8.89098,1.45599 -285.172295,1.50984 -293.641994,0.0572 z"
     id="path9"
     transform="scale(0.03)" />
  <path
     style="fill:#ff9955;stroke:#000000;stroke-width:2.64648"
     d="m 611.33723,671.60417 c -2.54724,-1.35852 -37.67928,-30.77094 -78.0712,-65.36092 -51.66668,-44.24521 -74.58852,-64.70187 -77.31422,-68.99927 -9.24671,-14.57857 -2.29709,-35.43773 14.08697,-42.28174 6.67752,-2.78936 17.69226,-2.56461 24.19164,0.49363 2.91113,1.36981 33.40098,26.64574 67.75522,56.16873 l 62.46225,53.67817 62.58401,-53.67291 c 34.42119,-29.52011 64.91418,-54.87082 67.7622,-56.33491 7.59356,-3.90368 20.89964,-2.98581 28.36856,1.95689 8.79327,5.81911 12.66155,12.87781 13.14451,23.98566 0.36135,8.31063 -0.0147,10.09344 -3.29306,15.61149 -2.8027,4.71745 -21.52603,21.52869 -77.14086,69.26299 -40.39192,34.66846 -75.82169,64.15574 -78.73282,65.5273 -7.03214,3.31317 -19.55711,3.29612 -25.8032,-0.0351 z"
     id="path10"
     transform="scale(0.03)" />
</svg>
