<?xml version="1.0" encoding="UTF-8" standalone="no"?>
<!-- Uploaded to: SVG Repo, www.svgrepo.com, Generator: SVG Repo Mixer Tools -->

<svg
   width="800px"
   height="800px"
   viewBox="0 0 24 24"
   fill="none"
   version="1.1"
   id="svg1"
   sodipodi:docname="trash-svgrepo-com.svg"
   inkscape:version="1.3.2 (091e20e, 2023-11-25, custom)"
   xmlns:inkscape="http://www.inkscape.org/namespaces/inkscape"
   xmlns:sodipodi="http://sodipodi.sourceforge.net/DTD/sodipodi-0.dtd"
   xmlns="http://www.w3.org/2000/svg"
   xmlns:svg="http://www.w3.org/2000/svg">
  <defs
     id="defs1" />
  <sodipodi:namedview
     id="namedview1"
     pagecolor="#505050"
     bordercolor="#ffffff"
     borderopacity="1"
     inkscape:showpageshadow="0"
     inkscape:pageopacity="0"
     inkscape:pagecheckerboard="1"
     inkscape:deskcolor="#505050"
     inkscape:zoom="0.75572037"
     inkscape:cx="487.61422"
     inkscape:cy="391.01764"
     inkscape:window-width="1920"
     inkscape:window-height="1111"
     inkscape:window-x="-9"
     inkscape:window-y="-9"
     inkscape:window-maximized="1"
     inkscape:current-layer="svg1" />
  <path
     d="M 2.2388499,4.9011192 H 21.307534 m -4.767171,0 -0.322499,-0.9676523 C 15.905257,2.9957406 15.748894,2.5268774 15.459049,2.1802325 15.203052,1.8741206 14.874356,1.6371802 14.502993,1.4911379 14.082409,1.3257409 13.588292,1.3257409 12.59982,1.3257409 h -1.653255 c -0.988473,0 -1.4825902,0 -1.9031619,0.165397 C 8.6720523,1.6371802 8.3433082,1.8741206 8.0873231,2.1802325 7.797431,2.5268774 7.6411512,2.9957406 7.3285678,3.9334669 L 7.006021,4.9011192 m 11.917928,0 V 17.057406 c 0,2.00245 0,3.003557 -0.389716,3.768449 -0.34276,0.672767 -0.889674,1.219681 -1.562441,1.56244 -0.764892,0.389717 -1.765998,0.389717 -3.768449,0.389717 h -2.860302 c -2.0024025,0 -3.0036041,0 -3.7684132,-0.389717 -0.6727551,-0.342759 -1.2197165,-0.889673 -1.5625,-1.56244 C 4.6224354,20.060963 4.6224354,19.059856 4.6224354,17.057406 V 4.9011192 M 14.156778,9.6682904 V 18.010841 M 9.3896069,9.6682904 v 8.3425506"
     stroke="#000000"
     stroke-width="2.38358"
     stroke-linecap="round"
     stroke-linejoin="round"
     id="path1" />
  <path
     style="fill:#ff9955;stroke:#000000;stroke-width:2.64648"
     d="m 273.91084,797.18805 c -51.2226,-2.82397 -81.75142,-15.23004 -111.8919,-45.46977 -25.20839,-25.2914 -37.83236,-50.43402 -43.90887,-87.45142 -1.93945,-11.81496 -2.22158,-37.20547 -2.63375,-237.03045 L 115.01471,203.43837 90.780706,202.89262 C 66.560058,202.34718 66.54185,202.3445 57.74898,198.01578 31.776848,185.22974 28.067972,150.2187 50.845259,132.84603 c 11.116109,-8.47847 9.213609,-8.28291 85.512691,-8.78967 l 69.5343,-0.46183 5.05129,-15.48384 c 11.16696,-34.230346 19.45607,-50.347327 33.61161,-65.352948 16.35149,-17.333429 37.55458,-29.484499 59.89667,-34.3255746 11.1553,-2.41713 18.64851,-2.7734172 71.34856,-3.3924824 86.79508,-1.019578 107.69172,0.9986417 130.96858,12.649081 13.85145,6.932871 22.56152,13.569233 34.58727,26.352672 12.31388,13.089735 20.46676,28.560309 30.83421,58.509722 l 7.09992,20.51023 69.28387,0.69419 c 62.19838,0.62319 69.9109,0.93502 75.415,3.04911 8.86586,3.40532 16.2605,10.35624 20.90489,19.65047 5.84425,11.6954 5.76092,22.71109 -0.25979,34.34155 -4.6851,9.05038 -13.23074,16.69102 -21.91464,19.59384 -2.71392,0.90719 -15.50767,1.94561 -28.96073,2.35062 l -24.09915,0.72552 -0.49242,225.10712 c -0.53341,243.84961 -0.22052,233.1102 -7.57261,259.9112 -9.67787,35.27919 -39.32279,71.31923 -74.07588,90.0558 -22.02377,11.87376 -42.19495,16.63716 -79.12408,18.68506 -26.70916,1.48115 -207.46091,1.452 -234.48398,-0.0378 z m 228.92065,-77.99214 c 28.09352,-1.51105 39.9172,-4.22162 52.16986,-11.95987 10.77296,-6.80374 22.1191,-19.16549 27.35761,-29.80643 8.63711,-17.54445 8.23836,-6.08243 8.75543,-251.6769 l 0.46875,-222.63525 H 392.33734 193.09155 l 0.47633,221.97363 c 0.43574,203.06053 0.66919,222.92282 2.73974,233.11357 3.6229,17.83087 12.88211,33.28328 26.29801,43.88794 14.8095,11.70623 27.29143,15.50474 55.93655,17.02264 27.51323,1.45792 197.54635,1.51908 224.28931,0.0807 z m -6.61621,-596.88813 c 0,-3.47432 -8.71471,-21.87076 -12.28901,-25.941667 -8.34199,-9.500991 -13.22599,-11.165217 -37.03555,-12.619862 -11.80785,-0.721402 -44.39396,-0.996971 -72.41358,-0.612377 -57.5471,0.789884 -60.28929,1.184971 -70.47912,10.154412 -5.59548,4.925344 -11.07298,15.079974 -14.81078,27.457434 l -0.8991,2.97729 h 103.96357 c 72.93191,0 103.96357,-0.42243 103.96357,-1.41523 z"
     id="path4"
     transform="scale(0.03)" />
  <path
     style="fill:#ff9955;stroke:#000000;stroke-width:2.64648"
     d="m 463.79589,638.62746 c -11.98813,-3.11627 -22.66664,-11.80962 -27.59068,-22.4615 l -2.84386,-6.15197 -0.35362,-146.20634 c -0.4005,-165.59198 -1.06854,-154.57649 10.12965,-167.03157 8.22147,-9.14424 16.58935,-12.9113 28.71741,-12.92801 15.65869,-0.0216 27.70986,7.55546 35.75755,22.48217 2.40527,4.46125 2.49697,10.14721 2.49697,154.81916 v 150.18783 l -2.98541,5.58699 c -4.59463,8.59851 -10.425,14.49433 -17.94613,18.1476 -7.39331,3.59119 -18.99367,5.21623 -25.38188,3.55564 z"
     id="path5"
     transform="scale(0.03)" />
  <path
     style="fill:#ff9955;stroke:#000000;stroke-width:2.64648"
     d="m 302.74734,638.00429 c -7.97546,-2.23993 -16.35622,-8.052 -21.15854,-14.67347 -8.03543,-11.07932 -7.75721,-4.85355 -7.36992,-164.91405 l 0.35358,-146.13195 3.01672,-6.12301 c 14.71638,-29.86965 57.09746,-29.83969 70.92237,0.0501 l 2.80887,6.07287 v 149.52621 149.5262 l -2.98541,5.58699 c -9.28555,17.37719 -27.98481,26.02387 -45.58767,21.08007 z"
     id="path6"
     transform="scale(0.03)" />
</svg>
