<?xml version="1.0" encoding="UTF-8" standalone="no"?>
<!-- Uploaded to: SVG Repo, www.svgrepo.com, Generator: SVG Repo Mixer Tools -->

<svg
   width="800px"
   height="800px"
   viewBox="0 0 32 32"
   fill="none"
   version="1.1"
   id="svg4"
   sodipodi:docname="logo.svg"
   inkscape:version="1.3.2 (091e20e, 2023-11-25, custom)"
   xmlns:inkscape="http://www.inkscape.org/namespaces/inkscape"
   xmlns:sodipodi="http://sodipodi.sourceforge.net/DTD/sodipodi-0.dtd"
   xmlns="http://www.w3.org/2000/svg"
   xmlns:svg="http://www.w3.org/2000/svg">
  <defs
     id="defs4" />
  <sodipodi:namedview
     id="namedview4"
     pagecolor="#505050"
     bordercolor="#ffffff"
     borderopacity="1"
     inkscape:showpageshadow="0"
     inkscape:pageopacity="0"
     inkscape:pagecheckerboard="1"
     inkscape:deskcolor="#505050"
     inkscape:zoom="0.75572037"
     inkscape:cx="555.0995"
     inkscape:cy="437.33107"
     inkscape:window-width="1920"
     inkscape:window-height="1111"
     inkscape:window-x="-9"
     inkscape:window-y="-9"
     inkscape:window-maximized="1"
     inkscape:current-layer="svg4" />
  <g
     id="g4"
     transform="matrix(1.1872894,0,0,1.1872894,-2.9966311,-2.9966309)">
    <path
       fill-rule="evenodd"
       clip-rule="evenodd"
       d="M 12.5915,3.88444 C 13.6002,3.32107 14.7626,3 16,3 c 1.2374,0 2.3998,0.32107 3.4085,0.88444 l 0.7379,-0.73799 c 0.1953,-0.19527 0.5119,-0.19527 0.7072,0 0.1952,0.19526 0.1952,0.51184 0,0.7071 l -0.5924,0.5924 C 21.9266,5.72558 23,7.73743 23,10 H 9 C 9,7.73743 10.0734,5.72558 11.7388,4.44595 l -0.5924,-0.5924 c -0.1952,-0.19526 -0.1952,-0.51184 0,-0.7071 0.1953,-0.19527 0.5119,-0.19527 0.7072,0 z M 14,7 c 0,0.55228 -0.4477,1 -1,1 -0.5523,0 -1,-0.44772 -1,-1 0,-0.55228 0.4477,-1 1,-1 0.5523,0 1,0.44772 1,1 z m 5,1 c 0.5523,0 1,-0.44772 1,-1 0,-0.55228 -0.4477,-1 -1,-1 -0.5523,0 -1,0.44772 -1,1 0,0.55228 0.4477,1 1,1 z"
       fill="#87c527"
       id="path1" />
    <path
       d="M 5,12.5 C 5,11.6716 5.67157,11 6.5,11 7.32843,11 8,11.6716 8,12.5 v 6 C 8,19.3284 7.32843,20 6.5,20 5.67157,20 5,19.3284 5,18.5 Z"
       fill="#87c527"
       id="path2" />
    <path
       d="m 12,24 v 3.5 c 0,0.8284 0.6716,1.5 1.5,1.5 0.8284,0 1.5,-0.6716 1.5,-1.5 V 24 h 2 v 3.5 c 0,0.8284 0.6716,1.5 1.5,1.5 0.8284,0 1.5,-0.6716 1.5,-1.5 V 24 h 1 c 1.1046,0 2,-0.8954 2,-2 V 11 H 9 v 11 c 0,1.1046 0.89543,2 2,2 z"
       fill="#87c527"
       id="path3" />
    <path
       d="m 24,12.5 c 0,-0.8284 0.6716,-1.5 1.5,-1.5 0.8284,0 1.5,0.6716 1.5,1.5 v 6 C 27,19.3284 26.3284,20 25.5,20 24.6716,20 24,19.3284 24,18.5 Z"
       fill="#87c527"
       id="path4" />
  </g>
</svg>
