<?xml version="1.0" encoding="UTF-8" standalone="no"?>
<!-- Uploaded to: SVG Repo, www.svgrepo.com, Generator: SVG Repo Mixer Tools -->

<svg
   width="800px"
   height="800px"
   viewBox="0 0 24 24"
   version="1.1"
   id="svg2"
   sodipodi:docname="restart.svg"
   inkscape:version="1.3.2 (091e20e, 2023-11-25, custom)"
   xmlns:inkscape="http://www.inkscape.org/namespaces/inkscape"
   xmlns:sodipodi="http://sodipodi.sourceforge.net/DTD/sodipodi-0.dtd"
   xmlns="http://www.w3.org/2000/svg"
   xmlns:svg="http://www.w3.org/2000/svg">
  <defs
     id="defs2" />
  <sodipodi:namedview
     id="namedview2"
     pagecolor="#505050"
     bordercolor="#ffffff"
     borderopacity="1"
     inkscape:showpageshadow="0"
     inkscape:pageopacity="0"
     inkscape:pagecheckerboard="1"
     inkscape:deskcolor="#505050"
     inkscape:zoom="0.75572037"
     inkscape:cx="264.64815"
     inkscape:cy="369.84579"
     inkscape:window-width="1920"
     inkscape:window-height="1111"
     inkscape:window-x="-9"
     inkscape:window-y="-9"
     inkscape:window-maximized="1"
     inkscape:current-layer="g2" />
  <g
     id="g2">
    <path
       fill="none"
       d="M0 0h24v24H0z"
       id="path1" />
    <path
       d="M 12,23.786375 C 5.4903851,23.786375 0.21362497,18.509615 0.21362497,12 0.21362497,5.4903851 5.4903851,0.21362497 12,0.21362497 c 6.509615,0 11.786375,5.27676013 11.786375,11.78637503 0,6.509615 -5.27676,11.786375 -11.786375,11.786375 z m 5.681033,-5.803611 a 8.2504625,8.2504625 0 1 0 -2.182837,1.492155 L 14.349025,17.40641 A 5.8931875,5.8931875 0 1 1 17.893188,12 h -3.535913 z"
       id="path2"
       style="stroke-width:1.17864" />
    <path
       style="fill:#ff6600;fill-opacity:0.956863;stroke:#000000;stroke-width:2.64648"
       d="M 361.90635,790.54582 C 200.52273,772.79948 70.708143,665.41722 23.89807,510.94632 7.3377106,456.29795 3.5757396,393.08539 13.374499,334.11829 27.54991,248.81333 73.269056,166.05702 138.20108,108.16947 200.34042,52.771616 274.95052,19.650465 359.92149,9.7426376 c 19.60958,-2.2865266 65.49238,-1.9030465 86.01065,0.7188614 44.36921,5.669681 83.8991,17.082509 122.09539,35.250635 115.31672,54.850576 197.12338,162.860756 218.54094,288.541816 6.45387,37.87216 7.01851,86.52379 1.43291,123.464 -15.55338,102.8618 -72.29236,196.74329 -156.15392,258.37549 -19.36183,14.22956 -37.04971,24.86734 -60.20745,36.20977 -35.84392,17.55597 -74.64544,29.72497 -113.92206,35.72842 -21.03066,3.21455 -76.26245,4.66387 -95.8116,2.51419 z m 72.98766,-117.13334 c 26.21341,-3.37385 49.03148,-9.81757 80.17746,-22.64175 0.90972,-0.37457 1.65405,-1.1961 1.65405,-1.82562 0,-1.04749 -36.43345,-67.20458 -37.71741,-68.48853 -0.30749,-0.3075 -7.87537,1.87241 -16.81753,4.84425 -27.71194,9.20977 -53.96963,12.31727 -80.43562,9.51922 -87.1521,-9.21388 -154.43833,-69.62117 -173.67988,-155.9239 -4.17588,-18.72976 -4.1397,-58.51276 0.0708,-77.90073 8.38323,-38.60164 26.25487,-71.50471 53.79983,-99.04966 27.54695,-27.54696 60.46283,-45.42468 99.04966,-53.79721 19.93257,-4.32496 57.99838,-4.31496 77.41538,0.0203 63.51276,14.18066 110.92692,51.46308 138.41905,108.84082 10.66384,22.25609 16.32789,44.02475 18.65379,71.69227 l 0.86212,10.25512 H 537.3486 c -32.44842,0 -58.99712,0.50921 -58.99712,1.13158 0,1.1004 109.43125,198.68025 110.77222,200.00101 0.36946,0.3639 4.84362,-3.80431 9.94257,-9.26268 79.7733,-85.39638 98.76474,-206.78413 48.62063,-310.76896 -35.7646,-74.16582 -102.36448,-127.95745 -182.6741,-147.54286 -24.94708,-6.08394 -42.62181,-7.81447 -72.67191,-7.11529 -22.46281,0.52265 -30.1858,1.24598 -44.92147,4.20733 -105.69835,21.24162 -187.52196,98.30544 -214.33262,201.86462 -6.35647,24.55255 -8.42273,41.43261 -8.42273,68.80852 0,33.59987 4.2025,59.26226 14.73526,89.98037 33.66261,98.17478 120.7348,169.23119 224.49188,183.19959 18.54489,2.49662 51.40557,2.47448 71.0028,-0.0478 z"
       id="path3"
       transform="scale(0.03)" />
  </g>
</svg>
