<?xml version="1.0" encoding="UTF-8" standalone="no"?>
<!-- Uploaded to: SVG Repo, www.svgrepo.com, Generator: SVG Repo Mixer Tools -->

<svg
   fill="#000000"
   width="800px"
   height="800px"
   viewBox="0 0 24 24"
   version="1.1"
   id="svg1"
   sodipodi:docname="wrap-text-svgrepo-com.svg"
   inkscape:version="1.3.2 (091e20e, 2023-11-25, custom)"
   xmlns:inkscape="http://www.inkscape.org/namespaces/inkscape"
   xmlns:sodipodi="http://sodipodi.sourceforge.net/DTD/sodipodi-0.dtd"
   xmlns="http://www.w3.org/2000/svg"
   xmlns:svg="http://www.w3.org/2000/svg">
  <defs
     id="defs1" />
  <sodipodi:namedview
     id="namedview1"
     pagecolor="#505050"
     bordercolor="#ffffff"
     borderopacity="1"
     inkscape:showpageshadow="0"
     inkscape:pageopacity="0"
     inkscape:pagecheckerboard="1"
     inkscape:deskcolor="#505050"
     inkscape:zoom="0.534375"
     inkscape:cx="17.777778"
     inkscape:cy="577.30994"
     inkscape:window-width="1920"
     inkscape:window-height="1111"
     inkscape:window-x="-9"
     inkscape:window-y="-9"
     inkscape:window-maximized="1"
     inkscape:current-layer="svg1" />
  <path
     d="M 1.2315789,6.0169742 H 22.768421 a 1.1964912,1.1964912 0 0 0 0,-2.3929825 H 1.2315789 a 1.1964912,1.1964912 0 0 0 0,2.3929825 z M 8.4105263,15.588904 H 1.2315789 a 1.1964912,1.1964912 0 0 0 0,2.392982 h 7.1789474 a 1.1964912,1.1964912 0 0 0 0,-2.392982 z M 19.777193,9.6064479 H 1.2315789 a 1.1964912,1.1964912 0 0 0 0,2.3929821 H 19.777193 a 1.794737,1.794737 0 0 1 0,3.589474 h -3.697158 l 0.358947,-0.346982 a 1.2013868,1.2013868 0 0 0 -1.699017,-1.699018 l -2.392983,2.392982 a 1.1964912,1.1964912 0 0 0 -0.251263,0.394843 1.1964912,1.1964912 0 0 0 0,0.909333 1.1964912,1.1964912 0 0 0 0.251263,0.394842 l 2.392983,2.392982 a 1.1964912,1.1964912 0 0 0 1.699017,0 1.1964912,1.1964912 0 0 0 0,-1.699017 l -0.358947,-0.346983 h 3.697158 a 4.1877193,4.1877193 0 0 0 0,-8.3754381 z"
     id="path1"
     style="stroke-width:1.19649" />
  <path
     style="fill:#ff7f2a;stroke:#000000;stroke-width:3.74269"
     d="M 25.247107,195.80822 C 11.37977,189.50842 1.8386959,174.47786 1.9228798,159.06433 c 0.067553,-12.36851 11.5588942,-28.79461 23.7480082,-33.9462 5.008607,-2.11683 68.07055,-2.54503 374.811392,-2.54503 358.82177,0 368.97729,0.0962 375.73262,3.56057 14.84451,7.61271 21.70751,19.90138 20.62339,36.92746 -0.92666,14.5527 -7.73717,25.37903 -20.05659,31.88292 l -8.24756,4.3542 -367.89279,-0.0411 C 48.84149,199.21785 32.420398,199.06698 25.247107,195.80822 Z"
     id="path2"
     transform="scale(0.03)" />
  <path
     style="fill:#ff7f2a;stroke:#000000;stroke-width:3.74269"
     d="m 504.32749,674.90322 c -4.69315,-2.24875 -24.66946,-20.94563 -53.5521,-50.12216 -43.4641,-43.90634 -46.19265,-47.07215 -48.29586,-56.0352 -1.73017,-7.3733 -1.72444,-11.56218 0.0256,-18.71345 2.0937,-8.55558 5.60356,-12.58794 49.13829,-56.45343 50.85771,-51.24412 54.96612,-54.26686 71.26134,-52.43015 12.15809,1.3704 21.80736,7.07772 28.40421,16.80046 11.72325,17.27824 9.37787,35.17362 -6.68317,50.99316 -5.18161,5.10368 -9.4211,9.99854 -9.4211,10.87743 0,0.8789 30.96773,1.33161 68.81716,1.00602 l 68.81716,-0.59198 12.42623,-6.12031 c 14.27369,-7.03023 22.50656,-15.53041 29.33317,-30.28553 6.7659,-14.62392 6.77101,-34.21463 0.0127,-48.74036 -5.77116,-12.40403 -17.23097,-24.23917 -29.25753,-30.21576 L 676.49123,400.46784 353.5369,399.53216 30.582555,398.59649 21.37315,392.97335 C 14.457014,388.75045 10.882267,384.82246 7.0175439,377.19919 4.1871345,371.61613 1.871345,364.56004 1.871345,361.51898 c 0,-16.83762 12.69469,-34.17846 28.131844,-38.42788 6.499922,-1.78924 80.164601,-2.18083 331.166401,-1.76043 l 322.80702,0.54067 13.09941,4.39734 c 25.19733,8.45847 41.76502,18.51136 58.94737,35.76791 17.96027,18.03781 27.7338,33.44386 35.06519,55.27335 4.51666,13.44859 5.03504,17.72969 5.09831,42.10526 0.0612,23.56782 -0.5042,28.85635 -4.3011,40.23392 -13.0754,39.18091 -37.0917,67.11993 -72.35363,84.17153 -27.54642,13.32063 -33.65232,14.07409 -114.05363,14.07409 -38.65061,0 -70.2693,0.63158 -70.26375,1.40351 0.006,0.77193 4.19462,5.44112 9.30905,10.37599 16.06911,15.50495 18.52654,34.13576 6.78512,51.4408 -10.28299,15.15552 -31.27216,21.31546 -46.98146,13.78818 z"
     id="path3"
     transform="scale(0.03)" />
  <path
     style="fill:#ff7f2a;stroke:#000000;stroke-width:3.74269"
     d="M 24.140976,594.16897 C 11.452331,587.46251 1.8922178,572.57935 1.8922178,559.53216 c 0,-13.26017 9.6903962,-28.11793 22.6513742,-34.73013 6.844731,-3.49192 12.121014,-3.63244 136.392078,-3.63244 123.38766,0 129.58795,0.16207 136.21491,3.56057 29.68999,15.22592 28.53889,57.54533 -1.91134,70.26824 -6.03555,2.52182 -23.57567,2.88564 -135.64697,2.81363 -122.821601,-0.0789 -129.023508,-0.24572 -135.451294,-3.64306 z"
     id="path4"
     transform="scale(0.03)" />
</svg>
