<?xml version="1.0" encoding="UTF-8" standalone="no"?>
<!-- Uploaded to: SVG Repo, www.svgrepo.com, Generator: SVG Repo Mixer Tools -->

<svg
   width="685.75018"
   height="800.73456"
   viewBox="-0.5 0 6.0003141 7.0064274"
   version="1.1"
   id="svg1"
   sodipodi:docname="play-1003-svgrepo-com.svg"
   inkscape:export-filename="play-1003-svgrepo-com.png"
   inkscape:export-xdpi="3.8364773"
   inkscape:export-ydpi="3.8364773"
   xmlns:inkscape="http://www.inkscape.org/namespaces/inkscape"
   xmlns:sodipodi="http://sodipodi.sourceforge.net/DTD/sodipodi-0.dtd"
   xmlns="http://www.w3.org/2000/svg"
   xmlns:svg="http://www.w3.org/2000/svg"
   xmlns:rdf="http://www.w3.org/1999/02/22-rdf-syntax-ns#"
   xmlns:cc="http://creativecommons.org/ns#"
   xmlns:dc="http://purl.org/dc/elements/1.1/">
  <sodipodi:namedview
     id="namedview1"
     pagecolor="#505050"
     bordercolor="#ffffff"
     borderopacity="1"
     inkscape:showpageshadow="0"
     inkscape:pageopacity="0"
     inkscape:pagecheckerboard="1"
     inkscape:deskcolor="#505050" />
  <title
     id="title1">play [#1003]</title>
  <desc
     id="desc1">Created with Sketch.</desc>
  <defs
     id="defs1" />
  <g
     id="Page-1"
     stroke="none"
     stroke-width="1"
     fill="none"
     fill-rule="evenodd"
     transform="translate(-0.5,0.00319931)">
    <g
       id="Dribbble-Light-Preview"
       transform="translate(-347,-3766)"
       fill="#000000">
      <g
         id="icons"
         transform="translate(56,160)">
        <path
           d="m 296.49474,3608.5732 -3.99399,-2.431 C 291.83208,3605.7354 291,3606.25 291,3607.0689 v 4.8621 c 0,0.8199 0.83208,1.3334 1.50075,0.9267 l 3.99399,-2.43 c 0.67368,-0.41 0.67368,-1.4445 0,-1.8545"
           id="play-[#1003]" />
      </g>
    </g>
  </g>
  <path
     style="fill:#00ff00;stroke:#000000;stroke-width:0.0163743"
     d="M 0.35198779,6.9859593 C -0.05268755,6.9181199 -0.37872442,6.5931907 -0.47308767,6.1636865 -0.48774021,6.0969939 -0.4883041,5.9984023 -0.4883041,3.5031993 c 0,-2.495203 5.6385e-4,-2.5937946 0.0152164,-2.66048721 0.0468195,-0.2131038 0.14398422,-0.39339197 0.29153787,-0.54094562 C 0.11685053,0.00336611 0.53844478,-0.07484826 0.90350878,0.10046585 0.97046448,0.13261989 4.9321665,2.5387711 5.0508229,2.619349 5.2642375,2.7642762 5.4330669,3.0380068 5.4794434,3.3142912 5.4963077,3.4147583 5.4962311,3.5923799 5.4792807,3.6921074 5.4536802,3.842726 5.3910351,4.0008006 5.3066286,4.1277661 5.2582841,4.2004865 5.155074,4.3090317 5.0807382,4.365333 5.0011885,4.4255834 0.99699141,6.8608747 0.90350886,6.90586 0.73113342,6.9888098 0.53709587,7.0169905 0.35198787,6.9859593 Z"
     id="path1" />
  <metadata
     id="metadata1">
    <rdf:RDF>
      <cc:Work
         rdf:about="">
        <dc:title>play [#1003]</dc:title>
      </cc:Work>
    </rdf:RDF>
  </metadata>
</svg>
