<?xml version="1.0" encoding="UTF-8" standalone="no"?>
<!-- Uploaded to: SVG Repo, www.svgrepo.com, Generator: SVG Repo Mixer Tools -->

<svg
   width="800px"
   height="800px"
   viewBox="0 0 24 24"
   fill="none"
   version="1.1"
   id="svg1"
   sodipodi:docname="photo-camera-svgrepo-com.svg"
   inkscape:version="1.3.2 (091e20e, 2023-11-25, custom)"
   xmlns:inkscape="http://www.inkscape.org/namespaces/inkscape"
   xmlns:sodipodi="http://sodipodi.sourceforge.net/DTD/sodipodi-0.dtd"
   xmlns="http://www.w3.org/2000/svg"
   xmlns:svg="http://www.w3.org/2000/svg">
  <defs
     id="defs1" />
  <sodipodi:namedview
     id="namedview1"
     pagecolor="#505050"
     bordercolor="#ffffff"
     borderopacity="1"
     inkscape:showpageshadow="0"
     inkscape:pageopacity="0"
     inkscape:pagecheckerboard="1"
     inkscape:deskcolor="#505050"
     inkscape:zoom="0.75572037"
     inkscape:cx="267.29463"
     inkscape:cy="420.12894"
     inkscape:window-width="1920"
     inkscape:window-height="1111"
     inkscape:window-x="-9"
     inkscape:window-y="-9"
     inkscape:window-maximized="1"
     inkscape:current-layer="svg1" />
  <g
     id="g3"
     transform="matrix(1.1852301,0,0,1.1852301,-2.2232431,-2.2229738)">
    <path
       d="M 3,9 C 3,7.89543 3.89543,7 5,7 H 6.5 C 7.12951,7 7.72229,6.70361 8.1,6.2 L 9.15,4.8 C 9.52771,4.29639 10.1205,4 10.75,4 h 2.5 c 0.6295,0 1.2223,0.29639 1.6,0.8 L 15.9,6.2 C 16.2777,6.70361 16.8705,7 17.5,7 H 19 c 1.1046,0 2,0.89543 2,2 v 9 c 0,1.1046 -0.8954,2 -2,2 H 5 C 3.89543,20 3,19.1046 3,18 Z"
       stroke="#000000"
       stroke-width="2"
       stroke-linecap="round"
       stroke-linejoin="round"
       id="path1" />
    <circle
       cx="12"
       cy="13"
       r="4"
       stroke="#000000"
       stroke-width="2"
       stroke-linecap="round"
       stroke-linejoin="round"
       id="circle1" />
    <path
       style="fill:#ff7f2a;fill-opacity:0.956863;stroke:#000000;stroke-width:1.87135"
       d="M 149.38505,697.9272 C 113.8648,691.48022 85.050595,666.80793 72.621944,632.19846 67.181352,617.04829 67.368421,623.534 67.368421,450.05848 c 0,-135.84856 0.202084,-160.44094 1.373356,-167.1289 7.181065,-41.00388 39.850583,-73.6734 80.854473,-80.85447 5.83611,-1.02209 15.77751,-1.37336 38.86774,-1.37336 47.29926,0 43.49346,1.94571 72.9627,-37.30199 11.53787,-15.36636 23.22637,-30.22862 25.97445,-33.02724 11.90678,-12.12573 28.95767,-21.99906 46.18808,-26.74524 l 9.33476,-2.57129 57.07602,-0.002 57.07602,-0.002 9.35673,2.5995 c 17.37215,4.82637 34.27254,14.60811 46.16611,26.72039 2.74808,2.79862 14.43658,17.66088 25.97445,33.02724 29.46924,39.2477 25.66344,37.30199 72.9627,37.30199 23.09023,0 33.03163,0.35127 38.86774,1.37336 41.06621,7.19198 73.6625,39.78826 80.85448,80.85447 2.07621,11.85522 2.05707,322.49515 -0.0206,334.40947 -3.53806,20.28871 -13.48244,38.8336 -28.78802,53.68562 -13.05481,12.66796 -26.82933,20.53827 -44.47925,25.41398 l -9.08146,2.50872 -246.08187,0.15604 c -209.31615,0.13273 -247.17852,-0.043 -253.42197,-1.17621 z m 497.3687,-66.98457 c 7.49243,-3.5117 13.96067,-9.8686 17.21863,-16.92222 l 2.69429,-5.83328 0.24475,-156.21449 c 0.2629,-167.79202 0.42513,-161.29944 -4.21855,-168.82867 -2.35144,-3.81258 -7.85745,-9.44437 -11.55518,-11.81914 -7.32414,-4.70373 -10.98179,-5.126 -44.40133,-5.126 -39.52116,0 -49.3386,-1.52815 -67.32116,-10.47896 -18.47301,-9.19495 -26.07417,-16.62546 -51.47182,-50.31628 -11.45407,-15.19419 -22.24287,-28.97144 -23.97512,-30.61609 -1.73226,-1.64465 -5.67586,-4.17097 -8.76358,-5.61403 l -5.61404,-2.62376 H 400 350.40936 l -5.61404,2.62376 c -3.08772,1.44306 -7.03132,3.96938 -8.76358,5.61403 -1.73225,1.64465 -12.51325,15.41133 -23.95777,30.59262 -25.80929,34.23629 -32.76036,41.01823 -51.70608,50.44792 -17.74429,8.83171 -27.70292,10.37079 -67.10425,10.37079 -33.41954,0 -37.07719,0.42227 -44.40133,5.126 -3.69774,2.37477 -9.20374,8.00656 -11.55517,11.81914 -4.64369,7.52923 -4.48146,1.03665 -4.21856,168.82867 l 0.24475,156.21449 2.69429,5.83328 c 4.18166,9.05349 13.34549,16.64738 22.78826,18.88418 2.0249,0.47965 105.39272,0.77316 243.05547,0.69015 l 239.53216,-0.14445 z"
       id="path2"
       transform="scale(0.03)" />
    <path
       style="fill:#ff7f2a;fill-opacity:0.956863;stroke:#000000;stroke-width:1.87135"
       d="m 376.60819,597.82782 c -36.49335,-5.58675 -68.4193,-21.61933 -94.0098,-47.20984 -44.84995,-44.84994 -60.21176,-111.03056 -39.70469,-171.05287 11.70694,-34.26514 36.23374,-65.65907 66.8139,-85.52076 19.77876,-12.84623 41.8609,-21.27192 65.96491,-25.16966 9.66282,-1.56253 38.99216,-1.56253 48.65498,0 25.45034,4.11545 47.38954,12.77955 69.32915,27.37906 14.13302,9.40469 33.9039,29.17691 43.31187,43.31479 20.7575,31.19346 30.23499,63.97119 28.83625,99.72971 -0.58011,14.83084 -2.42804,27.0083 -5.96347,39.29824 -18.27655,63.53333 -71.18552,109.57144 -137.0374,119.24143 -12.12666,1.78075 -34.52971,1.77584 -46.1957,-0.0101 z m 39.31944,-65.40346 c 21.2878,-3.45279 39.70313,-12.8971 55.06141,-28.23826 43.0346,-42.98665 38.02858,-114.13383 -10.63816,-151.19297 -7.53141,-5.73508 -24.38424,-14.05091 -33.52602,-16.54304 -46.99762,-12.81194 -96.53594,9.89574 -117.61495,53.91306 -15.75867,32.90736 -11.8104,73.07382 10.10508,102.80072 8.64886,11.73163 23.21921,23.8759 36.7084,30.59617 17.2059,8.57191 40.07796,11.88004 59.90424,8.66432 z"
       id="path3"
       transform="scale(0.03)" />
  </g>
</svg>
